<svg width="45" height="45" viewBox="0 0 45 45" fill="none" xmlns="http://www.w3.org/2000/svg">
<circle cx="22.5" cy="22.5" r="22.5" fill="#563AD6"/>
<g clip-path="url(#clip0)">
<path d="M22.5637 32.6598C24.3057 32.6598 25.7179 31.2476 25.7179 29.5055C25.7179 27.7634 24.3057 26.3512 22.5637 26.3512C20.8216 26.3512 19.4094 27.7634 19.4094 29.5055C19.4094 31.2476 20.8216 32.6598 22.5637 32.6598Z" fill="#3ABAD6"/>
<path d="M30.1022 21.9058C30.0554 21.8577 30.006 21.8148 29.9579 21.7706L29.8162 21.6367C29.7928 21.612 29.7668 21.5938 29.7369 21.5704C25.6581 17.8648 19.4159 18.0117 15.5231 21.9045L15.0667 22.3622L14.4348 22.9941C13.6651 23.7638 13.669 25.0185 14.44 25.7895C15.2123 26.5631 16.467 26.5644 17.2354 25.7947L18.325 24.7052C20.8006 22.2309 24.8273 22.2309 27.3016 24.7039L28.0882 25.4658C28.8501 26.2277 30.0931 26.2264 30.859 25.4593C31.2295 25.09 31.4336 24.5972 31.4349 24.0733C31.4362 23.5519 31.2347 23.0591 30.8642 22.6911L30.1022 21.9058Z" fill="#3ABAD6"/>
<path d="M35.476 18.0065L34.8207 17.3512C34.8181 17.3486 34.8168 17.3447 34.8116 17.3434L34.2941 16.8233C34.2031 16.7336 34.1043 16.6556 34.0003 16.588C27.3523 10.7514 17.2407 10.9308 10.8047 17.1224C10.7735 17.151 10.7384 17.1705 10.7072 17.2017L9.52397 18.3862C8.82186 19.087 8.82576 20.2272 9.53177 20.9333C10.2365 21.638 11.3768 21.6432 12.0789 20.9398L13.2621 19.7579C13.2699 19.7475 13.2764 19.7384 13.2842 19.7319C18.4889 14.704 26.7451 14.6728 31.9915 19.6292L32.9224 20.5614C33.6232 21.2622 34.7661 21.2596 35.4708 20.5549C36.1742 19.8489 36.1768 18.7073 35.476 18.0065Z" fill="#3ABAD6"/>
</g>
<defs>
<clipPath id="clip0">
<rect width="27" height="27" fill="white" transform="translate(9 9)"/>
</clipPath>
</defs>
</svg>
